<?xml version="1.0" encoding="utf-8"?>
<!-- Generator: Adobe Illustrator 16.0.3, SVG Export Plug-In . SVG Version: 6.00 Build 0)  -->
<!DOCTYPE svg PUBLIC "-//W3C//DTD SVG 1.1//EN" "http://www.w3.org/Graphics/SVG/1.1/DTD/svg11.dtd">
<svg version="1.1" id="Layer_1" xmlns="http://www.w3.org/2000/svg" xmlns:xlink="http://www.w3.org/1999/xlink" x="0px" y="0px"
	 width="141.73px" height="56.69px" viewBox="0 0 141.73 56.69" enable-background="new 0 0 141.73 56.69" xml:space="preserve">
<g>
	<path fill="#006FB9" d="M35.751,7.261h-0.708V49.74h0.708V7.261z M28.277,40.489c0.026-0.063,0.04-0.132,0.04-0.206
		c0-0.295-0.239-0.534-0.534-0.534h-0.541c-0.037,0-0.071-0.008-0.101-0.023c-0.031-0.018-0.059-0.04-0.079-0.071l-0.271-0.4
		c0.021,0.032,0.047,0.054,0.078,0.069c0.03,0.018,0.065,0.026,0.102,0.026h0.713c0.037,0,0.072,0.008,0.101,0.024
		c0.031,0.017,0.058,0.038,0.079,0.07l-0.328-0.481c-0.021-0.028-0.048-0.052-0.079-0.067c-0.03-0.018-0.065-0.025-0.101-0.025
		H26.65c-0.036,0-0.071-0.008-0.102-0.023c-0.031-0.019-0.058-0.04-0.079-0.071l-0.307-0.452c0.021,0.032,0.049,0.054,0.079,0.069
		s0.064,0.026,0.101,0.026h0.71c0.037,0,0.071,0.008,0.101,0.023c0.032,0.016,0.058,0.04,0.079,0.069l-0.328-0.479
		c-0.021-0.029-0.047-0.053-0.078-0.067c-0.03-0.018-0.066-0.027-0.101-0.027h-0.564c-0.038,0-0.071-0.008-0.101-0.023
		c-0.03-0.019-0.058-0.04-0.079-0.069l-0.378-0.557c0.766-0.091,1.385-0.507,1.507-1.079c0.159-0.744-0.578-1.461-1.646-1.618
		c-0.179-0.025-0.317-0.18-0.317-0.368c0-0.158,0.101-0.295,0.241-0.346c-0.114-0.05-0.242-0.077-0.375-0.077
		c-0.474,0-0.856,0.338-0.856,0.756c0,0.073,0.014,0.148,0.037,0.216c-0.531,0.228-1.012,0.634-1.381,1.073
		c0.394-0.107,0.81-0.162,1.237-0.162c-0.002-0.022-0.003-0.04-0.003-0.06c0-0.321,0.259-0.58,0.579-0.58h0.008
		c-0.219,0.097-0.325,0.305-0.325,0.445c0,0.162,0.134,0.297,0.299,0.297c0.064,0,0.125-0.018,0.173-0.054
		c-0.011-0.037-0.017-0.079-0.017-0.12c0-0.228,0.185-0.414,0.415-0.414c0.02,0,0.041,0.002,0.06,0.006
		c-0.158,0.072-0.268,0.233-0.268,0.422c0,0.255,0.208,0.461,0.464,0.461c0.027,0,0.054,0,0.08-0.006
		c-0.007-0.026-0.01-0.054-0.01-0.085c0-0.184,0.149-0.332,0.331-0.332c0.186,0,0.335,0.148,0.335,0.332
		c0,0.401-0.445,0.438-0.769,0.345c-0.923-0.266-1.788-0.387-2.624-0.268c-1.072,0.15-2.83,0.877-4.694,0.814
		c-0.417-0.013-0.873-0.082-1.331-0.206c0.056,0.06,0.093,0.103,0.116,0.14c0.181,0.281,0.244,0.579,0.083,0.951
		c0.006-0.416-0.337-0.759-0.626-0.969c-0.117-0.085-0.163-0.166-0.144-0.273l0.085-0.48c-0.006,0.037-0.003,0.073,0.008,0.105
		c0.01,0.031,0.028,0.063,0.055,0.088l0.179,0.177c0.069-0.487-0.041-0.938-0.33-1.358c0.127-0.335,0.146-0.703,0.059-1.049
		c-0.033,0.261-0.162,0.374-0.284,0.451c-0.227,0.141-0.265,0.382-0.148,0.54c-0.189-0.097-0.455-0.451-0.302-0.661
		c0.165-0.224,0.616-0.117,0.672-0.503c-0.292-0.093-0.595-0.025-0.688-0.002c-0.173-0.198-0.403-0.297-0.689-0.295
		c-0.227-0.206-0.518-0.291-0.874-0.256c-0.354-0.035-0.646,0.05-0.872,0.256c-0.288-0.002-0.517,0.097-0.692,0.295
		c-0.091-0.023-0.393-0.091-0.687,0.002c0.057,0.386,0.507,0.279,0.672,0.503c0.153,0.21-0.112,0.564-0.303,0.661
		c0.117-0.158,0.08-0.399-0.148-0.54c-0.122-0.077-0.25-0.19-0.284-0.451c-0.086,0.346-0.068,0.714,0.06,1.049
		c-0.29,0.42-0.399,0.871-0.331,1.358l0.179-0.177c0.026-0.025,0.045-0.057,0.055-0.088c0.011-0.032,0.013-0.068,0.006-0.105
		l0.086,0.48c0.019,0.107-0.028,0.188-0.144,0.273c-0.289,0.21-0.632,0.553-0.627,0.969c-0.16-0.372-0.095-0.68,0.084-0.951
		c-0.547-0.297-0.964-0.781-1.04-0.871c-0.166-0.191-0.144-0.438,0.007-0.651c0.288-0.411,0.357-0.854-0.006-1.156
		c0.002-0.021,0.004-0.043,0.004-0.065c0-0.274-0.196-0.503-0.454-0.554c0.048,0.073,0.076,0.164,0.076,0.259
		c0,0.109-0.036,0.21-0.098,0.291c0.051,0.065,0.081,0.15,0.081,0.242c0,0.122-0.054,0.233-0.142,0.305
		c0.01-0.042,0.014-0.087,0.014-0.131c0-0.281-0.175-0.517-0.412-0.584c-0.038-0.204-0.218-0.36-0.434-0.36
		c-0.125,0-0.237,0.054-0.319,0.137c0.168,0.012,0.303,0.145,0.321,0.311c-0.08,0.061-0.144,0.143-0.186,0.24h0.01
		c0.29,0,0.525,0.233,0.525,0.522c0,0.032-0.003,0.063-0.01,0.097c-0.021-0.12-0.075-0.229-0.161-0.314
		c-0.163-0.158-0.399-0.189-0.614-0.109c-0.082-0.101-0.207-0.164-0.347-0.164c-0.158,0-0.297,0.082-0.375,0.206
		c0.16,0.008,0.299,0.087,0.388,0.208C7.582,34.97,7.58,35.37,7.813,35.598c0.157,0.154,0.382,0.189,0.592,0.117
		c0.014-0.005,0.029-0.009,0.045-0.009c0.077,0,0.14,0.063,0.14,0.141s-0.063,0.139-0.14,0.139c-0.034,0-0.064-0.01-0.089-0.032
		c-0.053-0.044-0.121-0.068-0.195-0.068c-0.168,0-0.306,0.136-0.306,0.305c0,0.013,0,0.025,0.002,0.037
		c-0.029,0.01-0.059,0.014-0.091,0.014c-0.082,0-0.157-0.031-0.211-0.086c-0.009,0.033-0.014,0.066-0.014,0.104
		c0,0.216,0.167,0.392,0.378,0.407c0.094,0.236,0.326,0.402,0.596,0.402c0.139,0,0.267-0.046,0.371-0.117
		C8.937,36.918,8.991,36.9,9.052,36.9c0.155,0,0.281,0.124,0.281,0.283c0,0.132-0.095,0.245-0.219,0.272l-0.22,0.048
		C8.859,37.512,8.822,37.51,8.79,37.5c-0.033-0.008-0.065-0.021-0.091-0.05l0.502,0.478c0.026,0.023,0.058,0.041,0.091,0.05
		c0.033,0.01,0.068,0.012,0.104,0.004l0.411-0.092c0.035-0.008,0.072-0.006,0.104,0.002c0.033,0.008,0.066,0.028,0.092,0.052
		l0.344,0.329c-0.027-0.028-0.059-0.044-0.091-0.052c-0.033-0.01-0.069-0.012-0.104-0.002l-0.41,0.089
		c-0.035,0.008-0.072,0.006-0.104-0.005c-0.033-0.009-0.065-0.024-0.091-0.05l0.459,0.435c0.026,0.028,0.058,0.044,0.091,0.053
		c0.033,0.009,0.068,0.013,0.104,0.002l0.411-0.088c0.035-0.008,0.072-0.006,0.104,0.004c0.033,0.008,0.065,0.023,0.092,0.05
		l0.344,0.327c-0.026-0.024-0.058-0.042-0.091-0.052c-0.033-0.011-0.069-0.011-0.105-0.005l-0.409,0.092
		c-0.038,0.008-0.072,0.006-0.104-0.002c-0.035-0.008-0.065-0.026-0.092-0.052l0.46,0.436c0.027,0.025,0.057,0.044,0.09,0.052
		c0.034,0.01,0.068,0.01,0.106,0.004l0.495-0.109c-0.482,0.273-0.995,0.582-1.539,0.925c-0.322,0.202-0.672,0.241-1.078,0.085
		c-0.217-0.083-0.452-0.095-0.601-0.071c-0.194,0.034-0.356,0.15-0.453,0.315c0.075-0.032,0.157-0.046,0.243-0.046
		c0.181,0,0.343,0.071,0.462,0.19c-0.188-0.082-0.421-0.088-0.648-0.005c-0.406,0.146-0.642,0.529-0.549,0.87
		c-0.153,0.061-0.259,0.204-0.259,0.378c0,0.112,0.047,0.215,0.122,0.289c0.041-0.181,0.197-0.316,0.387-0.323
		c0.08,0.053,0.172,0.09,0.271,0.111c0.03-0.052,0.069-0.099,0.112-0.139c-0.005-0.033-0.007-0.066-0.007-0.099
		c0-0.373,0.299-0.674,0.67-0.674c0.03,0,0.061,0.002,0.09,0.008c-0.294,0.071-0.513,0.335-0.513,0.65
		c0,0.041,0.004,0.081,0.011,0.118c-0.159,0.062-0.271,0.214-0.271,0.395c0,0.103,0.037,0.197,0.098,0.27
		c0.114-0.221,0.337-0.377,0.596-0.402c0.098,0.029,0.202,0.043,0.31,0.043c0.067,0,0.132-0.006,0.196-0.016
		c-0.057-0.085-0.091-0.187-0.091-0.295c0-0.289,0.234-0.522,0.521-0.522c0.025,0,0.049,0.002,0.074,0.006
		c-0.276,0.116-0.444,0.355-0.385,0.574c0.041,0.154,0.186,0.259,0.374,0.295c-0.002,0.116-0.034,0.226-0.088,0.32
		c0.241-0.018,0.448-0.166,0.551-0.37c0.286-0.114,0.461-0.358,0.401-0.58c-0.02-0.08-0.069-0.146-0.136-0.198
		c0-0.006-0.001-0.014-0.001-0.021c0-0.153,0.124-0.277,0.276-0.277c0.153,0,0.277,0.124,0.277,0.277
		c0,0.071-0.027,0.137-0.073,0.187h0.578c0.037,0,0.072-0.008,0.101-0.024c0.032-0.016,0.059-0.041,0.079-0.07l0.372-0.551
		c0.013-0.021,0.031-0.038,0.053-0.048c0.02-0.012,0.044-0.018,0.069-0.018h0.455c-0.025,0-0.048,0.006-0.069,0.018
		c-0.021,0.01-0.039,0.027-0.053,0.048l-0.373,0.551c-0.02,0.029-0.048,0.055-0.078,0.07c-0.029,0.017-0.065,0.024-0.102,0.024
		h0.692c0.038,0,0.072-0.008,0.101-0.024c0.031-0.016,0.059-0.041,0.079-0.07l0.416-0.614c-0.287-0.158-0.405-0.434-0.405-0.813
		c0-0.234,0.133-0.501,0.153-0.676l0.007-0.069c0.005-0.035,0-0.07-0.012-0.103c-0.01-0.028-0.03-0.062-0.051-0.089l0.355,0.363
		c0.028,0.024,0.048,0.054,0.061,0.086c0.012,0.033,0.019,0.069,0.013,0.103l-0.011,0.085c-0.016,0.145-0.198,0.457,0.14,0.743
		c0.017,0.016,0.059,0.043,0.099,0.071l0.241,0.15v-0.89h0.335v0.988c0.001,0.038,0.012,0.069,0.029,0.102
		c0.017,0.029,0.041,0.055,0.071,0.076l0.329,0.208c0.032,0.021,0.065,0.03,0.099,0.033c0.034,0.002,0.071-0.003,0.104-0.017
		l0.606-0.264c-0.033,0.014-0.07,0.02-0.104,0.016c-0.034-0.002-0.069-0.012-0.099-0.033l-0.696-0.441
		c0.339-0.286,0.155-0.599,0.139-0.743l-0.011-0.085c-0.004-0.033,0.001-0.069,0.013-0.103c0.012-0.032,0.032-0.062,0.06-0.086
		l0.357-0.363c-0.022,0.027-0.042,0.061-0.051,0.089c-0.013,0.032-0.018,0.067-0.014,0.103l0.008,0.069
		c0.028,0.249,0.279,0.695,0.071,0.942l0.636,0.406c0.032,0.018,0.064,0.029,0.099,0.031c0.034,0.002,0.07-0.002,0.103-0.018
		l0.634-0.273c-0.033,0.012-0.069,0.019-0.102,0.017c-0.035-0.005-0.069-0.015-0.1-0.036L15.585,40.1
		c0.151-0.305,0.024-0.794-0.121-1.075l-0.022-0.044c-0.016-0.031-0.023-0.066-0.022-0.101c0-0.033,0.008-0.069,0.027-0.101
		l0.235-0.426c-0.018,0.029-0.026,0.067-0.026,0.101c-0.001,0.034,0.007,0.067,0.022,0.102l0.088,0.168
		c0.045,0.085,0.071,0.135,0.11,0.231c0.387-0.349,0.474-0.685,0.227-0.972l-0.073-0.088c-0.024-0.025-0.041-0.059-0.047-0.093
		c-0.008-0.031-0.008-0.067,0.002-0.103l0.127-0.47c-0.01,0.034-0.01,0.069-0.002,0.104c0.007,0.031,0.022,0.065,0.047,0.093
		l0.242,0.281c0.47,0.532,0.185,1.218-0.377,1.74c0.032,0.101,0.059,0.289,0.036,0.39l0.746,0.476
		c0.031,0.02,0.066,0.029,0.101,0.031c0.033,0.002,0.068-0.002,0.103-0.018l0.54-0.233c-0.031,0.013-0.066,0.021-0.101,0.021
		c-0.14,0-0.252-0.114-0.252-0.252c0-0.112,0.073-0.209,0.176-0.239c2.06-0.627,3.956-2.245,5.2-2.239
		c0.605,0.002,1.097,0.366,1.097,0.822c0,0.071-0.014,0.144-0.038,0.212c-0.265,0.744,0.121,1.457,1.143,1.729
		c0.161,0.045,0.282,0.193,0.282,0.372c0,0.035-0.005,0.065-0.014,0.099c0.023,0.002,0.048,0.002,0.072,0.002
		c0.28,0,0.529-0.141,0.679-0.353c0.175-0.002,0.367-0.013,0.563-0.033c0.023,0.047,0.042,0.103,0.052,0.16
		c0.042,0.216-0.032,0.41-0.164,0.451c-0.234,0.075-0.521-0.016-0.743-0.014c-0.42,0.004-0.758,0.348-0.758,0.767
		c0,0.033,0.002,0.065,0.006,0.099c-0.132,0.081-0.22,0.228-0.22,0.395c0,0.081,0.022,0.158,0.06,0.228
		c0.129-0.15,0.297-0.268,0.489-0.335c0.017-0.368,0.32-0.663,0.692-0.663c0.057,0,0.114,0.01,0.166,0.021
		c-0.377,0.048-0.668,0.368-0.668,0.759c0,0.027,0.002,0.06,0.004,0.085c-0.047,0.056-0.075,0.131-0.075,0.208
		c0,0.101,0.045,0.189,0.117,0.25c0.071-0.155,0.243-0.302,0.465-0.375c0.149-0.052,0.295-0.063,0.418-0.037
		c-0.019-0.058-0.029-0.119-0.029-0.187c0-0.333,0.27-0.602,0.603-0.602c0.03,0,0.061,0.004,0.09,0.008
		c-0.232,0.031-0.411,0.229-0.411,0.471c0,0.158,0.08,0.301,0.2,0.387c0,0.01-0.001,0.018-0.001,0.025
		c0,0.131,0.06,0.247,0.154,0.324c0.042-0.22,0.234-0.384,0.465-0.384c0.197,0,0.361-0.025,0.482-0.063
		c0.206-0.069,0.356-0.259,0.356-0.487c0-0.158-0.073-0.3-0.185-0.392c0.056-0.258,0.046-0.675-0.041-1.025
		c0.018-0.003,0.035-0.003,0.054-0.003C28.077,40.305,28.204,40.377,28.277,40.489 M12.084,38.724l0.087-0.168
		c0.015-0.034,0.023-0.067,0.022-0.102c0-0.033-0.009-0.071-0.027-0.101l0.237,0.426c0.017,0.031,0.026,0.067,0.026,0.101
		c0.002,0.034-0.006,0.069-0.023,0.101l-0.021,0.044c-0.145,0.281-0.279,0.81-0.129,1.117c-0.351-0.13-0.467-0.438-0.429-0.693
		c-0.66-0.626-0.826-1.26-0.354-1.792l0.242-0.282c0.024-0.026,0.04-0.063,0.046-0.094c0.008-0.034,0.008-0.069-0.001-0.105
		l0.126,0.472c0.009,0.035,0.01,0.073,0.002,0.104c-0.008,0.034-0.023,0.067-0.047,0.094l-0.074,0.087
		c-0.246,0.287-0.18,0.675,0.206,1.023C12.012,38.858,12.039,38.809,12.084,38.724 M12.963,35.328h-0.155
		c-0.169,0-0.318-0.228-0.318-0.432c0.091,0.103,0.19,0.148,0.322,0.148h0.713c0.064,0,0.127,0.05,0.154,0.132
		c0.021,0.061,0.009,0.151-0.002,0.236c-0.034-0.063-0.077-0.085-0.132-0.085h-0.163c0.039,0.047,0.063,0.104,0.063,0.172
		c0,0.148-0.122,0.271-0.271,0.271c-0.151,0-0.271-0.123-0.271-0.271C12.901,35.433,12.923,35.375,12.963,35.328 M13.141,34.039
		l0.297,0.376c0.065,0.081,0.086,0.135,0.165,0.145h-0.249c-0.124,0-0.21-0.052-0.283-0.135l-0.284-0.371
		c-0.047-0.059-0.084-0.099-0.145-0.126h0.28C13.009,33.928,13.083,33.966,13.141,34.039 M13.965,33.948l0.364,0.511
		c0.057,0.084,0.112,0.13,0.189,0.162h-0.333c-0.127,0-0.204-0.06-0.261-0.152l-0.286-0.438c-0.11-0.162-0.152-0.206-0.278-0.25
		h0.309C13.792,33.781,13.906,33.862,13.965,33.948 M15.265,34.56h-0.249c-0.124,0-0.208-0.052-0.281-0.135l-0.284-0.371
		c-0.048-0.059-0.085-0.099-0.145-0.126h0.279c0.085,0,0.16,0.038,0.218,0.111l0.297,0.376C15.166,34.496,15.187,34.55,15.265,34.56
		 M15.359,34.896c0,0.204-0.148,0.432-0.318,0.432h-0.155c0.039,0.047,0.063,0.104,0.063,0.172c0,0.148-0.123,0.271-0.272,0.271
		c-0.15,0-0.272-0.123-0.272-0.271c0-0.067,0.023-0.125,0.063-0.172h-0.162c-0.056,0-0.1,0.021-0.133,0.085
		c-0.012-0.085-0.024-0.176-0.004-0.236c0.029-0.082,0.091-0.132,0.156-0.132h0.713C15.169,35.045,15.267,34.999,15.359,34.896
		 M15.14,36.438c-0.05,0.016-0.077,0.044-0.082,0.096c-0.03,0.278-0.143,0.39-0.322,0.455c-0.003,0.279-0.042,0.493-0.118,0.756
		c0.213,0.448,0.05,0.761-0.125,0.828c-0.165,0.063-0.379-0.022-0.568-0.022c-0.188,0-0.405,0.086-0.572,0.022
		c-0.174-0.067-0.338-0.38-0.124-0.828c-0.075-0.263-0.114-0.477-0.117-0.756c-0.18-0.065-0.294-0.177-0.323-0.455
		c-0.005-0.052-0.033-0.08-0.082-0.096c-0.712-0.193-0.779-1.077-0.418-1.328c-0.033,0.396-0.066,0.956,0.743,1.029
		c-0.014,0.465,0.188,0.588,0.394,0.588c0.169,0,0.267-0.054,0.309-0.075c0.151-0.081,0.047-0.202,0.008-0.237
		c-0.104-0.1-0.156-0.235-0.131-0.372c0.004-0.024,0.014-0.037,0.036-0.037h0.274H14.2c0.022,0,0.032,0.013,0.036,0.037
		c0.024,0.137-0.028,0.272-0.131,0.372c-0.039,0.035-0.143,0.156,0.007,0.237c0.042,0.021,0.14,0.075,0.309,0.075
		c0.207,0,0.407-0.123,0.395-0.588c0.809-0.073,0.774-0.634,0.742-1.029C15.919,35.361,15.852,36.245,15.14,36.438 M14.423,38.144
		c0.021-0.237-0.247-0.319-0.5-0.319c-0.251,0-0.519,0.082-0.498,0.319c0.025,0.289,0.294,0.15,0.498,0.152
		C14.129,38.294,14.398,38.433,14.423,38.144 M14.339,37.583c0.04-0.209,0.057-0.412,0.047-0.607l-0.185,0.222
		c-0.038-0.09-0.062-0.143-0.087-0.185c-0.02-0.037-0.038-0.06-0.062-0.063c-0.014,0.004-0.031,0.014-0.052,0.021
		c-0.023,0.004-0.057,0.002-0.077,0.002c-0.018,0-0.051,0.002-0.076-0.002c-0.021-0.007-0.039-0.017-0.052-0.021
		c-0.024,0.004-0.041,0.026-0.062,0.063c-0.025,0.042-0.049,0.095-0.086,0.185l-0.188-0.222c-0.007,0.195,0.01,0.398,0.048,0.607
		c0.139-0.031,0.28-0.042,0.415-0.042C14.06,37.541,14.202,37.552,14.339,37.583 M17.737,31.756c0.031,0,0.059,0.003,0.087,0.008
		c-0.292,0.082-0.526,0.302-0.637,0.581c-0.181,0.061-0.313,0.231-0.313,0.433c0,0.096,0.03,0.183,0.077,0.256
		c0.159-0.176,0.365-0.309,0.602-0.372c0.068-0.339,0.348-0.598,0.698-0.636c-0.305,0.129-0.519,0.428-0.519,0.778
		c0,0.123,0.026,0.241,0.076,0.347c0.054-0.192,0.23-0.335,0.44-0.335c0.053,0,0.104,0.01,0.15,0.027
		c0.064,0.022,0.135,0.034,0.208,0.034c0.338,0,0.612-0.273,0.612-0.612c0-0.066-0.01-0.133-0.031-0.191
		c0.161,0.047,0.278,0.193,0.278,0.372c0,0.079-0.024,0.154-0.066,0.216c0.045,0.008,0.091,0.012,0.139,0.012
		c0.398,0,0.726-0.299,0.771-0.686c0.2-0.106,0.375-0.253,0.526-0.438l0.107,0.52c0.007,0.037,0.005,0.071-0.004,0.104
		c-0.011,0.034-0.027,0.063-0.053,0.091l0.438-0.451c0.026-0.027,0.043-0.058,0.053-0.091c0.01-0.034,0.011-0.069,0.005-0.104
		l-0.13-0.633c-0.007-0.036-0.005-0.071,0.004-0.104c0.01-0.033,0.028-0.065,0.053-0.091l0.345-0.352
		c-0.025,0.025-0.043,0.057-0.052,0.09c-0.009,0.033-0.012,0.068-0.004,0.104l0.129,0.633c0.007,0.035,0.005,0.07-0.004,0.104
		c-0.01,0.031-0.026,0.063-0.05,0.089l0.391-0.405c0.025-0.026,0.042-0.058,0.051-0.092c0.01-0.031,0.013-0.069,0.004-0.104
		l-0.128-0.631c-0.008-0.036-0.005-0.072,0.004-0.104c0.009-0.033,0.027-0.064,0.052-0.09l0.346-0.352
		c-0.026,0.025-0.043,0.057-0.053,0.09c-0.009,0.032-0.01,0.067-0.003,0.104l0.13,0.632c0.008,0.036,0.004,0.071-0.005,0.104
		c-0.008,0.034-0.025,0.062-0.051,0.09l0.391-0.405c0.027-0.028,0.043-0.06,0.053-0.092c0.01-0.033,0.012-0.068,0.004-0.104
		l-0.063-0.309c-0.067-0.349,0.294-0.751,0.58-0.793c0.035-0.065,0.053-0.136,0.053-0.21c0-0.355-0.422-0.641-0.942-0.641
		c-0.254,0-0.486,0.067-0.656,0.179c0.069,0.203,0.084,0.407-0.584,0.502c-0.529,0.076-0.994,0.178-1.349,0.479
		c-0.546,0.462-0.502,1.08-0.813,1.315c0.138,0.033,0.314,0.033,0.501-0.008c0.119-0.023,0.229-0.065,0.326-0.113
		c-0.059,0.111-0.191,0.216-0.365,0.293c-0.059,0.218-0.253,0.427-0.515,0.523c-0.165,0.061-0.33,0.066-0.466,0.027l-0.639-0.185
		c-0.079-0.021-0.16-0.031-0.246-0.031c-0.47,0-0.859,0.36-0.916,0.829c-0.223,0.032-0.393,0.222-0.393,0.453
		c0,0.086,0.023,0.163,0.062,0.232c0.153-0.159,0.347-0.271,0.565-0.331C17.09,31.992,17.385,31.756,17.737,31.756 M17.781,35.359
		c-0.01-0.058-0.009-0.112,0.003-0.17c0.024-0.11,0.121-0.192,0.238-0.192c0.136,0,0.243,0.109,0.243,0.244
		c0,0.063-0.024,0.122-0.064,0.166c0.046,0.004,0.092,0.006,0.141,0.006c0.126,0,0.245-0.014,0.35-0.043
		c0.171-0.044,0.298-0.202,0.298-0.388c0-0.223-0.181-0.403-0.403-0.403c-0.012,0-0.024,0-0.037,0
		c0.056-0.021,0.119-0.033,0.183-0.033c0.258,0,0.469,0.208,0.469,0.465c0,0.015-0.001,0.028-0.002,0.04
		c0.698-0.014,1.482-0.649,1.654-0.891c-0.219,0.049-0.455,0.075-0.702,0.075c-0.28,0-0.548-0.032-0.791-0.1
		c-0.343-0.089-0.681-0.141-0.938-0.141c-0.855,0-1.549,0.559-1.549,1.248c0,0.566,0.469,1.064,1.12,1.195
		c1.48,0.302,3.221-0.577,4.693-0.881c0.368-0.36,0.793-0.659,1.261-0.887c-0.014-0.054-0.021-0.111-0.021-0.167V34.5
		c-1.953,0.319-3.708,1.323-5.294,1.315C18.187,35.812,17.838,35.641,17.781,35.359 M28.277,31.02
		c0.026-0.062,0.04-0.131,0.04-0.204c0-0.294-0.239-0.536-0.534-0.536h-0.541c-0.037,0.002-0.071-0.008-0.101-0.022
		c-0.031-0.017-0.059-0.041-0.079-0.07l-0.271-0.399c0.021,0.029,0.047,0.053,0.078,0.068c0.03,0.016,0.065,0.026,0.102,0.026h0.713
		c0.037,0,0.072,0.008,0.101,0.025c0.031,0.014,0.058,0.038,0.079,0.067l-0.328-0.479c-0.021-0.03-0.048-0.054-0.079-0.069
		c-0.03-0.016-0.065-0.026-0.101-0.026l-0.707,0.003c-0.036,0-0.071-0.009-0.102-0.025c-0.031-0.017-0.058-0.04-0.079-0.069
		l-0.307-0.454c0.021,0.031,0.049,0.055,0.079,0.069c0.03,0.016,0.064,0.027,0.101,0.027l0.71-0.002
		c0.037,0,0.071,0.008,0.101,0.025c0.032,0.016,0.058,0.038,0.079,0.069l-0.328-0.479c-0.021-0.03-0.047-0.052-0.078-0.07
		c-0.03-0.015-0.066-0.024-0.101-0.024h-0.564c-0.038,0-0.071-0.009-0.101-0.025c-0.03-0.017-0.058-0.039-0.079-0.071l-0.378-0.555
		c0.766-0.091,1.385-0.506,1.507-1.079c0.159-0.741-0.578-1.461-1.646-1.618c-0.179-0.027-0.317-0.18-0.317-0.368
		c0-0.158,0.101-0.294,0.241-0.346c-0.114-0.05-0.242-0.077-0.375-0.077c-0.474,0-0.856,0.338-0.856,0.756
		c0,0.074,0.014,0.148,0.037,0.217c-0.531,0.228-1.012,0.633-1.381,1.071c0.394-0.105,0.81-0.162,1.237-0.162
		c-0.002-0.02-0.003-0.04-0.003-0.061c0-0.32,0.259-0.578,0.579-0.578h0.008c-0.219,0.097-0.325,0.305-0.325,0.443
		c0,0.167,0.134,0.3,0.299,0.3c0.064,0,0.125-0.021,0.173-0.055c-0.011-0.038-0.017-0.077-0.017-0.12
		c0-0.229,0.185-0.415,0.415-0.415c0.02,0,0.041,0.001,0.06,0.005c-0.158,0.074-0.268,0.234-0.268,0.42
		c0,0.257,0.208,0.465,0.464,0.465c0.027,0,0.054-0.002,0.08-0.007c-0.007-0.027-0.01-0.055-0.01-0.083
		c0-0.186,0.149-0.335,0.331-0.335c0.186,0,0.335,0.149,0.335,0.335c0,0.399-0.445,0.436-0.769,0.343
		c-0.923-0.266-1.788-0.385-2.624-0.268c-1.072,0.151-2.83,0.876-4.694,0.815c-0.417-0.012-0.873-0.082-1.331-0.207
		c0.056,0.061,0.093,0.104,0.116,0.14c0.181,0.283,0.244,0.579,0.083,0.951c0.006-0.417-0.337-0.758-0.626-0.968
		c-0.117-0.084-0.163-0.164-0.144-0.272l0.085-0.479c-0.006,0.035-0.003,0.071,0.008,0.103c0.01,0.033,0.028,0.064,0.055,0.089
		l0.179,0.176c0.069-0.486-0.041-0.938-0.33-1.358c0.127-0.333,0.146-0.703,0.059-1.05c-0.033,0.263-0.162,0.375-0.284,0.452
		c-0.227,0.142-0.265,0.381-0.148,0.542c-0.189-0.097-0.455-0.453-0.302-0.66c0.165-0.224,0.616-0.12,0.672-0.503
		c-0.292-0.094-0.595-0.029-0.688-0.003c-0.173-0.199-0.403-0.298-0.689-0.296c-0.227-0.205-0.518-0.291-0.874-0.256
		c-0.354-0.035-0.646,0.051-0.872,0.256c-0.288-0.002-0.517,0.097-0.692,0.296c-0.091-0.026-0.393-0.091-0.687,0.003
		c0.057,0.383,0.507,0.279,0.672,0.503c0.153,0.207-0.112,0.563-0.303,0.66c0.117-0.16,0.08-0.4-0.148-0.542
		c-0.122-0.076-0.25-0.188-0.284-0.452c-0.086,0.347-0.068,0.717,0.06,1.05c-0.29,0.42-0.399,0.872-0.331,1.358l0.179-0.176
		c0.026-0.025,0.045-0.056,0.055-0.089c0.011-0.032,0.013-0.068,0.006-0.103l0.086,0.479c0.019,0.108-0.028,0.188-0.144,0.272
		c-0.289,0.21-0.632,0.552-0.627,0.968c-0.16-0.372-0.095-0.68,0.084-0.951c-0.547-0.295-0.964-0.779-1.04-0.868
		c-0.166-0.193-0.144-0.438,0.007-0.653c0.288-0.413,0.357-0.854-0.006-1.156c0.002-0.022,0.004-0.044,0.004-0.067
		c0-0.273-0.196-0.502-0.454-0.555c0.048,0.075,0.076,0.166,0.076,0.26c0,0.108-0.036,0.209-0.098,0.291
		c0.051,0.068,0.081,0.151,0.081,0.243c0,0.122-0.054,0.231-0.142,0.304c0.01-0.042,0.014-0.085,0.014-0.13
		c0-0.283-0.175-0.518-0.412-0.582c-0.038-0.205-0.218-0.361-0.434-0.361c-0.125,0-0.237,0.052-0.319,0.135
		c0.168,0.013,0.303,0.144,0.321,0.31c-0.08,0.061-0.144,0.143-0.186,0.241h0.01c0.29,0,0.525,0.234,0.525,0.523
		c0,0.032-0.003,0.064-0.01,0.097c-0.021-0.12-0.075-0.23-0.161-0.313c-0.163-0.16-0.399-0.192-0.614-0.11
		c-0.082-0.102-0.207-0.167-0.347-0.167c-0.158,0-0.297,0.082-0.375,0.208c0.16,0.006,0.299,0.087,0.388,0.21
		c-0.227,0.291-0.229,0.691,0.003,0.918c0.157,0.154,0.382,0.189,0.592,0.118c0.014-0.005,0.029-0.007,0.045-0.007
		c0.077,0,0.14,0.062,0.14,0.14c0,0.077-0.063,0.139-0.14,0.139c-0.034,0-0.064-0.012-0.089-0.032
		c-0.053-0.043-0.121-0.07-0.195-0.07c-0.168,0-0.306,0.137-0.306,0.306c0,0.013,0,0.026,0.002,0.038
		c-0.029,0.01-0.059,0.014-0.091,0.014c-0.082,0-0.157-0.035-0.211-0.088c-0.009,0.034-0.014,0.069-0.014,0.104
		c0,0.216,0.167,0.393,0.378,0.409C8.017,27.435,8.249,27.6,8.519,27.6c0.139,0,0.267-0.043,0.371-0.117
		c0.046-0.032,0.101-0.05,0.162-0.05c0.155,0,0.281,0.125,0.281,0.28c0,0.135-0.095,0.247-0.219,0.275l-0.22,0.048
		c-0.035,0.008-0.072,0.007-0.104-0.003c-0.033-0.009-0.065-0.025-0.091-0.05l0.502,0.476c0.026,0.025,0.058,0.042,0.091,0.052
		c0.033,0.008,0.068,0.01,0.104,0.003l0.411-0.092c0.035-0.007,0.072-0.006,0.104,0.003c0.033,0.01,0.066,0.027,0.092,0.052
		l0.344,0.327c-0.027-0.025-0.059-0.043-0.091-0.051c-0.033-0.009-0.069-0.012-0.104-0.003l-0.41,0.09
		c-0.035,0.009-0.072,0.007-0.104-0.004c-0.033-0.008-0.065-0.026-0.091-0.05l0.459,0.435c0.026,0.025,0.058,0.042,0.091,0.053
		c0.033,0.009,0.068,0.01,0.104,0.002l0.411-0.091c0.035-0.009,0.072-0.007,0.104,0.004c0.033,0.008,0.065,0.026,0.092,0.052
		l0.344,0.326c-0.026-0.025-0.058-0.041-0.091-0.051c-0.033-0.01-0.069-0.011-0.105-0.005l-0.409,0.091
		c-0.038,0.01-0.072,0.008-0.104-0.002c-0.035-0.009-0.065-0.025-0.092-0.05l0.46,0.435c0.027,0.025,0.057,0.042,0.09,0.051
		c0.034,0.009,0.068,0.011,0.106,0.003L11.5,29.93c-0.482,0.272-0.995,0.582-1.539,0.924C9.64,31.058,9.29,31.095,8.884,30.94
		c-0.217-0.083-0.452-0.095-0.601-0.071c-0.194,0.033-0.356,0.15-0.453,0.314c0.075-0.031,0.157-0.047,0.243-0.047
		c0.181,0,0.343,0.071,0.462,0.189c-0.188-0.079-0.421-0.087-0.648-0.004c-0.406,0.148-0.642,0.529-0.549,0.873
		c-0.153,0.06-0.259,0.204-0.259,0.375c0,0.112,0.047,0.218,0.122,0.289c0.041-0.181,0.197-0.313,0.387-0.32
		c0.08,0.053,0.172,0.088,0.271,0.108c0.03-0.052,0.069-0.1,0.112-0.137c-0.005-0.036-0.007-0.068-0.007-0.102
		c0-0.37,0.299-0.671,0.67-0.671c0.03,0,0.061,0.002,0.09,0.006c-0.294,0.071-0.513,0.337-0.513,0.653
		c0,0.038,0.004,0.077,0.011,0.117c-0.159,0.06-0.271,0.214-0.271,0.394c0,0.104,0.037,0.198,0.098,0.271
		c0.114-0.222,0.337-0.38,0.596-0.406c0.098,0.03,0.202,0.046,0.31,0.046c0.067,0,0.132-0.006,0.196-0.016
		c-0.057-0.085-0.091-0.188-0.091-0.295c0-0.289,0.234-0.523,0.521-0.523c0.025,0,0.049,0.002,0.074,0.007
		c-0.276,0.116-0.444,0.355-0.385,0.573c0.041,0.155,0.186,0.26,0.374,0.296c-0.002,0.117-0.034,0.226-0.088,0.318
		c0.241-0.018,0.448-0.164,0.551-0.368c0.286-0.115,0.461-0.358,0.401-0.58c-0.02-0.079-0.069-0.148-0.136-0.198
		c0-0.008-0.001-0.014-0.001-0.021c0-0.152,0.124-0.277,0.276-0.277c0.153,0,0.277,0.125,0.277,0.277
		c0,0.071-0.027,0.138-0.073,0.187h0.578c0.037,0,0.072-0.011,0.101-0.026c0.032-0.014,0.059-0.04,0.079-0.067l0.372-0.555
		c0.013-0.018,0.031-0.034,0.053-0.047c0.02-0.008,0.044-0.016,0.069-0.016h0.455c-0.025,0-0.048,0.008-0.069,0.016
		c-0.021,0.013-0.039,0.029-0.053,0.047l-0.373,0.555c-0.02,0.027-0.048,0.054-0.078,0.067c-0.029,0.016-0.065,0.026-0.102,0.026
		h0.692c0.038,0,0.072-0.011,0.101-0.026c0.031-0.014,0.059-0.04,0.079-0.067l0.416-0.617c-0.287-0.157-0.405-0.432-0.405-0.813
		c0-0.233,0.133-0.502,0.153-0.676l0.007-0.067c0.005-0.038,0-0.072-0.012-0.104c-0.01-0.026-0.03-0.063-0.051-0.089l0.355,0.365
		c0.028,0.022,0.048,0.053,0.061,0.083c0.012,0.033,0.019,0.07,0.013,0.104l-0.011,0.084c-0.016,0.146-0.198,0.457,0.14,0.741
		c0.017,0.019,0.059,0.046,0.099,0.071l0.241,0.15v-0.886h0.335v0.987c0.001,0.035,0.012,0.069,0.029,0.101
		c0.017,0.03,0.041,0.056,0.071,0.077l0.329,0.206c0.032,0.02,0.065,0.03,0.099,0.036c0.034,0.002,0.071-0.006,0.104-0.019
		l0.606-0.263c-0.033,0.014-0.07,0.02-0.104,0.016c-0.034-0.002-0.069-0.012-0.099-0.033l-0.696-0.444
		c0.339-0.284,0.155-0.596,0.139-0.741l-0.011-0.084c-0.004-0.034,0.001-0.071,0.013-0.104c0.012-0.03,0.032-0.061,0.06-0.083
		l0.357-0.365c-0.022,0.026-0.042,0.063-0.051,0.089c-0.013,0.032-0.018,0.066-0.014,0.104l0.008,0.067
		c0.028,0.249,0.279,0.696,0.071,0.943l0.636,0.404c0.032,0.018,0.064,0.031,0.099,0.033c0.034,0.002,0.07-0.002,0.103-0.02
		l0.634-0.273c-0.033,0.014-0.069,0.02-0.102,0.016c-0.035-0.002-0.069-0.012-0.1-0.033l-0.689-0.438
		c0.151-0.307,0.024-0.794-0.121-1.076l-0.022-0.043c-0.016-0.031-0.023-0.066-0.022-0.101c0-0.034,0.008-0.069,0.027-0.1
		l0.235-0.428c-0.018,0.031-0.026,0.066-0.026,0.1c-0.001,0.035,0.007,0.07,0.022,0.103l0.088,0.169
		c0.045,0.082,0.071,0.134,0.11,0.23c0.387-0.349,0.474-0.685,0.227-0.971l-0.073-0.087c-0.024-0.027-0.041-0.06-0.047-0.093
		c-0.008-0.034-0.008-0.069,0.002-0.105l0.127-0.47c-0.01,0.035-0.01,0.071-0.002,0.104c0.007,0.034,0.022,0.065,0.047,0.092
		l0.242,0.284c0.47,0.534,0.185,1.218-0.377,1.74c0.032,0.101,0.059,0.289,0.036,0.391l0.746,0.473
		c0.031,0.02,0.066,0.029,0.101,0.033c0.033,0.003,0.068-0.004,0.103-0.018l0.54-0.235c-0.031,0.016-0.066,0.023-0.101,0.023
		c-0.14,0-0.252-0.114-0.252-0.252c0-0.114,0.073-0.211,0.176-0.241c2.06-0.625,3.956-2.243,5.2-2.24
		c0.605,0.003,1.097,0.369,1.097,0.824c0,0.071-0.014,0.143-0.038,0.211c-0.265,0.745,0.121,1.459,1.143,1.729
		c0.161,0.046,0.282,0.194,0.282,0.37c0,0.036-0.005,0.067-0.014,0.1c0.023,0.002,0.048,0.004,0.072,0.004
		c0.28,0,0.529-0.141,0.679-0.353c0.175-0.002,0.367-0.012,0.563-0.033c0.023,0.047,0.042,0.103,0.052,0.161
		c0.042,0.215-0.032,0.406-0.164,0.45c-0.234,0.075-0.521-0.016-0.743-0.014c-0.42,0.005-0.758,0.346-0.758,0.766
		c0,0.034,0.002,0.065,0.006,0.098c-0.132,0.083-0.22,0.229-0.22,0.394c0,0.083,0.022,0.162,0.06,0.229
		c0.129-0.15,0.297-0.269,0.489-0.334c0.017-0.37,0.32-0.663,0.692-0.663c0.057,0,0.114,0.008,0.166,0.02
		c-0.377,0.05-0.668,0.37-0.668,0.76c0,0.028,0.002,0.058,0.004,0.086c-0.047,0.055-0.075,0.13-0.075,0.205
		c0,0.102,0.045,0.192,0.117,0.254c0.071-0.158,0.243-0.305,0.465-0.378c0.149-0.05,0.295-0.06,0.418-0.036
		c-0.019-0.06-0.029-0.12-0.029-0.186c0-0.332,0.27-0.603,0.603-0.603c0.03,0,0.061,0.002,0.09,0.006
		c-0.232,0.034-0.411,0.232-0.411,0.472c0,0.16,0.08,0.301,0.2,0.388c0,0.01-0.001,0.019-0.001,0.026c0,0.13,0.06,0.247,0.154,0.324
		c0.042-0.22,0.234-0.384,0.465-0.384c0.197,0,0.361-0.024,0.482-0.063c0.206-0.069,0.356-0.262,0.356-0.487
		c0-0.157-0.073-0.299-0.185-0.392c0.056-0.258,0.046-0.676-0.041-1.025c0.018-0.002,0.035-0.005,0.054-0.005
		C28.077,30.835,28.204,30.909,28.277,31.02 M12.084,29.257l0.087-0.169c0.015-0.033,0.023-0.068,0.022-0.103
		c0-0.034-0.009-0.069-0.027-0.1l0.237,0.428c0.017,0.03,0.026,0.065,0.026,0.1c0.002,0.034-0.006,0.069-0.023,0.101l-0.021,0.043
		c-0.145,0.282-0.279,0.812-0.129,1.117c-0.351-0.13-0.467-0.437-0.429-0.692c-0.66-0.625-0.826-1.261-0.354-1.792l0.242-0.283
		c0.024-0.027,0.04-0.06,0.046-0.093c0.008-0.034,0.008-0.068-0.001-0.104l0.126,0.469c0.009,0.037,0.01,0.072,0.002,0.106
		c-0.008,0.033-0.023,0.065-0.047,0.093l-0.074,0.085c-0.246,0.287-0.18,0.677,0.206,1.025
		C12.012,29.391,12.039,29.339,12.084,29.257 M12.963,25.858h-0.155c-0.169,0-0.318-0.227-0.318-0.428
		c0.091,0.102,0.19,0.146,0.322,0.146h0.713c0.064,0,0.127,0.05,0.154,0.131c0.021,0.061,0.009,0.151-0.002,0.239
		c-0.034-0.064-0.077-0.088-0.132-0.088h-0.163c0.039,0.046,0.063,0.107,0.063,0.172c0,0.15-0.122,0.271-0.271,0.271
		c-0.151,0-0.271-0.121-0.271-0.271C12.901,25.966,12.923,25.905,12.963,25.858 M13.141,24.571l0.297,0.376
		c0.065,0.08,0.086,0.133,0.165,0.145h-0.249c-0.124,0-0.21-0.051-0.283-0.135l-0.284-0.371c-0.047-0.059-0.084-0.1-0.145-0.126
		h0.28C13.009,24.46,13.083,24.496,13.141,24.571 M13.965,24.479l0.364,0.511c0.057,0.084,0.112,0.131,0.189,0.162h-0.333
		c-0.127,0-0.204-0.058-0.261-0.151l-0.286-0.438c-0.11-0.163-0.152-0.204-0.278-0.249h0.309
		C13.792,24.313,13.906,24.392,13.965,24.479 M15.265,25.092h-0.249c-0.124,0-0.208-0.051-0.281-0.135l-0.284-0.371
		c-0.048-0.059-0.085-0.1-0.145-0.126h0.279c0.085,0,0.16,0.036,0.218,0.111l0.297,0.376C15.166,25.027,15.187,25.081,15.265,25.092
		 M15.359,25.43c0,0.202-0.148,0.428-0.318,0.428h-0.155c0.039,0.046,0.063,0.107,0.063,0.172c0,0.15-0.123,0.271-0.272,0.271
		c-0.15,0-0.272-0.121-0.272-0.271c0-0.065,0.023-0.126,0.063-0.172h-0.162c-0.056,0-0.1,0.023-0.133,0.088
		c-0.012-0.088-0.024-0.178-0.004-0.239c0.029-0.081,0.091-0.131,0.156-0.131h0.713C15.169,25.577,15.267,25.532,15.359,25.43
		 M15.14,26.973c-0.05,0.012-0.077,0.042-0.082,0.093c-0.03,0.279-0.143,0.391-0.322,0.454c-0.003,0.281-0.042,0.494-0.118,0.756
		c0.213,0.448,0.05,0.762-0.125,0.828c-0.165,0.064-0.379-0.021-0.568-0.021c-0.188,0-0.405,0.085-0.572,0.021
		c-0.174-0.065-0.338-0.379-0.124-0.828c-0.075-0.262-0.114-0.475-0.117-0.756c-0.18-0.063-0.294-0.175-0.323-0.454
		c-0.005-0.051-0.033-0.081-0.082-0.093c-0.712-0.196-0.779-1.08-0.418-1.331c-0.033,0.397-0.066,0.956,0.743,1.03
		c-0.014,0.464,0.188,0.588,0.394,0.588c0.169,0.001,0.267-0.055,0.309-0.076c0.151-0.08,0.047-0.203,0.008-0.239
		c-0.104-0.096-0.156-0.233-0.131-0.37c0.004-0.025,0.014-0.038,0.036-0.038h0.274H14.2c0.022,0,0.032,0.013,0.036,0.038
		c0.024,0.137-0.028,0.274-0.131,0.37c-0.039,0.037-0.143,0.16,0.007,0.239c0.042,0.021,0.14,0.077,0.309,0.076
		c0.207,0,0.407-0.124,0.395-0.588c0.809-0.074,0.774-0.633,0.742-1.03C15.919,25.893,15.852,26.777,15.14,26.973 M14.423,28.676
		c0.021-0.237-0.247-0.32-0.5-0.32c-0.251,0-0.519,0.083-0.498,0.32c0.025,0.288,0.294,0.151,0.498,0.153
		C14.129,28.827,14.398,28.963,14.423,28.676 M14.339,28.115c0.04-0.209,0.057-0.412,0.047-0.606l-0.185,0.219
		c-0.038-0.087-0.062-0.141-0.087-0.184c-0.02-0.036-0.038-0.06-0.062-0.064c-0.014,0.007-0.031,0.016-0.052,0.021
		c-0.023,0.006-0.057,0.004-0.077,0.004c-0.018,0-0.051,0.002-0.076-0.004c-0.021-0.005-0.039-0.015-0.052-0.021
		c-0.024,0.004-0.041,0.028-0.062,0.064c-0.025,0.043-0.049,0.097-0.086,0.184l-0.188-0.219c-0.007,0.194,0.01,0.397,0.048,0.606
		c0.139-0.03,0.28-0.042,0.415-0.042C14.06,28.073,14.202,28.085,14.339,28.115 M17.737,22.289c0.031,0,0.059,0.002,0.087,0.005
		c-0.292,0.084-0.526,0.303-0.637,0.583c-0.181,0.06-0.313,0.232-0.313,0.433c0,0.095,0.03,0.182,0.077,0.254
		c0.159-0.176,0.365-0.308,0.602-0.372c0.068-0.339,0.348-0.599,0.698-0.636c-0.305,0.127-0.519,0.429-0.519,0.779
		c0,0.124,0.026,0.242,0.076,0.348c0.054-0.193,0.23-0.335,0.44-0.335c0.053,0,0.104,0.009,0.15,0.025
		c0.064,0.024,0.135,0.037,0.208,0.037c0.338,0,0.612-0.274,0.612-0.613c0-0.068-0.01-0.134-0.031-0.193
		c0.161,0.046,0.278,0.195,0.278,0.371c0,0.081-0.024,0.155-0.066,0.218c0.045,0.008,0.091,0.012,0.139,0.012
		c0.398,0,0.726-0.3,0.771-0.685c0.2-0.108,0.375-0.255,0.526-0.436l0.107,0.517c0.007,0.037,0.005,0.073-0.004,0.105
		c-0.011,0.032-0.027,0.063-0.053,0.09l0.438-0.451c0.026-0.027,0.043-0.057,0.053-0.09c0.01-0.034,0.011-0.069,0.005-0.105
		l-0.13-0.631c-0.007-0.036-0.005-0.071,0.004-0.105c0.01-0.032,0.028-0.064,0.053-0.091l0.345-0.352
		c-0.025,0.027-0.043,0.059-0.052,0.091c-0.009,0.033-0.012,0.069-0.004,0.104l0.129,0.633c0.007,0.036,0.005,0.071-0.004,0.104
		c-0.01,0.032-0.026,0.063-0.05,0.089l0.391-0.407c0.025-0.026,0.042-0.058,0.051-0.09c0.01-0.034,0.013-0.069,0.004-0.105
		l-0.128-0.63c-0.008-0.035-0.005-0.072,0.004-0.104c0.009-0.034,0.027-0.064,0.052-0.091l0.346-0.352
		c-0.026,0.026-0.043,0.057-0.053,0.091c-0.009,0.032-0.01,0.068-0.003,0.104l0.13,0.632c0.008,0.035,0.004,0.072-0.005,0.104
		c-0.008,0.032-0.025,0.063-0.051,0.089l0.391-0.407c0.027-0.027,0.043-0.057,0.053-0.09c0.01-0.034,0.012-0.068,0.004-0.105
		l-0.063-0.308c-0.067-0.35,0.294-0.75,0.58-0.791c0.035-0.067,0.053-0.138,0.053-0.212c0-0.354-0.422-0.642-0.942-0.642
		c-0.254,0-0.486,0.069-0.656,0.181c0.069,0.201,0.084,0.405-0.584,0.5c-0.529,0.076-0.994,0.178-1.349,0.479
		c-0.546,0.463-0.502,1.081-0.813,1.316c0.138,0.033,0.314,0.033,0.501-0.008c0.119-0.026,0.229-0.064,0.326-0.113
		c-0.059,0.111-0.191,0.218-0.365,0.292c-0.059,0.219-0.253,0.428-0.515,0.525c-0.165,0.062-0.33,0.068-0.466,0.027l-0.639-0.183
		c-0.079-0.023-0.16-0.036-0.246-0.036c-0.47,0-0.859,0.363-0.916,0.832c-0.223,0.033-0.393,0.222-0.393,0.454
		c0,0.084,0.023,0.164,0.062,0.231c0.153-0.155,0.347-0.271,0.565-0.33C17.09,22.526,17.385,22.289,17.737,22.289 M17.781,25.892
		c-0.01-0.057-0.009-0.113,0.003-0.17c0.024-0.11,0.121-0.192,0.238-0.192c0.136,0,0.243,0.108,0.243,0.243
		c0,0.063-0.024,0.124-0.064,0.167c0.046,0.004,0.092,0.007,0.141,0.007c0.126,0,0.245-0.016,0.35-0.044
		c0.171-0.045,0.298-0.201,0.298-0.389c0-0.222-0.181-0.401-0.403-0.401c-0.012,0-0.024,0-0.037,0.001
		c0.056-0.023,0.119-0.037,0.183-0.037c0.258,0,0.469,0.209,0.469,0.468c0,0.013-0.001,0.027-0.002,0.041
		c0.698-0.016,1.482-0.652,1.654-0.894c-0.219,0.05-0.455,0.078-0.702,0.078c-0.28,0-0.548-0.035-0.791-0.099
		c-0.343-0.091-0.681-0.142-0.938-0.142c-0.855,0-1.549,0.558-1.549,1.246c0,0.568,0.469,1.064,1.12,1.197
		c1.48,0.302,3.221-0.576,4.693-0.881c0.368-0.36,0.793-0.659,1.261-0.887c-0.014-0.054-0.021-0.11-0.021-0.167V25.03
		c-1.953,0.321-3.708,1.324-5.294,1.314C18.187,26.343,17.838,26.172,17.781,25.892 M28.277,21.553
		c0.026-0.063,0.04-0.132,0.04-0.206c0-0.295-0.239-0.535-0.534-0.535h-0.541c-0.037,0.001-0.071-0.009-0.101-0.024
		c-0.031-0.016-0.059-0.04-0.079-0.07l-0.271-0.4c0.021,0.031,0.047,0.054,0.078,0.069c0.03,0.017,0.065,0.026,0.102,0.026h0.713
		c0.037,0,0.072,0.01,0.101,0.025c0.031,0.016,0.058,0.04,0.079,0.069l-0.328-0.479c-0.021-0.03-0.048-0.052-0.079-0.068
		c-0.03-0.017-0.065-0.026-0.101-0.026l-0.707,0.001c-0.036,0-0.071-0.009-0.102-0.026c-0.031-0.016-0.058-0.039-0.079-0.068
		l-0.307-0.454c0.021,0.03,0.049,0.054,0.079,0.069c0.03,0.017,0.064,0.025,0.101,0.025h0.71c0.037,0,0.071,0.008,0.101,0.024
		c0.032,0.016,0.058,0.041,0.079,0.07l-0.328-0.48c-0.021-0.029-0.047-0.052-0.078-0.068c-0.03-0.016-0.066-0.025-0.101-0.025
		h-0.564c-0.038,0-0.071-0.009-0.101-0.026c-0.03-0.015-0.058-0.038-0.079-0.069l-0.378-0.555c0.766-0.092,1.385-0.507,1.507-1.079
		c0.159-0.743-0.578-1.462-1.646-1.619c-0.179-0.027-0.317-0.181-0.317-0.367c0-0.158,0.101-0.294,0.241-0.348
		c-0.114-0.049-0.242-0.077-0.375-0.077c-0.474,0-0.856,0.339-0.856,0.756c0,0.075,0.014,0.148,0.037,0.217
		c-0.531,0.228-1.012,0.634-1.381,1.071c0.394-0.105,0.81-0.161,1.237-0.161c-0.002-0.02-0.003-0.041-0.003-0.061
		c0-0.319,0.259-0.579,0.579-0.579h0.008c-0.219,0.096-0.325,0.306-0.325,0.444c0,0.165,0.134,0.299,0.299,0.299
		c0.064,0,0.125-0.02,0.173-0.055c-0.011-0.037-0.017-0.077-0.017-0.12c0-0.228,0.185-0.414,0.415-0.414
		c0.02,0,0.041,0.001,0.06,0.004c-0.158,0.074-0.268,0.235-0.268,0.422c0,0.255,0.208,0.464,0.464,0.464
		c0.027,0,0.054-0.004,0.08-0.008c-0.007-0.027-0.01-0.054-0.01-0.084c0-0.184,0.149-0.333,0.331-0.333
		c0.186,0,0.335,0.149,0.335,0.333c0,0.4-0.445,0.438-0.769,0.345c-0.923-0.267-1.788-0.386-2.624-0.269
		c-1.072,0.15-2.83,0.876-4.694,0.814c-0.417-0.013-0.873-0.083-1.331-0.208c0.056,0.062,0.093,0.104,0.116,0.141
		c0.181,0.283,0.244,0.579,0.083,0.95c0.006-0.416-0.337-0.757-0.626-0.968c-0.117-0.085-0.163-0.165-0.144-0.273l0.085-0.479
		c-0.006,0.034-0.003,0.07,0.008,0.103c0.01,0.034,0.028,0.063,0.055,0.09l0.179,0.175c0.069-0.485-0.041-0.938-0.33-1.356
		c0.127-0.335,0.146-0.704,0.059-1.051c-0.033,0.262-0.162,0.374-0.284,0.45c-0.227,0.143-0.265,0.383-0.148,0.542
		c-0.189-0.097-0.455-0.451-0.302-0.66c0.165-0.224,0.616-0.118,0.672-0.503c-0.292-0.092-0.595-0.028-0.688-0.003
		c-0.173-0.198-0.403-0.296-0.689-0.295c-0.227-0.205-0.518-0.291-0.874-0.254c-0.354-0.036-0.646,0.049-0.872,0.254
		c-0.288-0.001-0.517,0.097-0.692,0.295c-0.091-0.024-0.393-0.089-0.687,0.003c0.057,0.385,0.507,0.279,0.672,0.503
		c0.153,0.209-0.112,0.563-0.303,0.66c0.117-0.159,0.08-0.399-0.148-0.542c-0.122-0.076-0.25-0.188-0.284-0.45
		c-0.086,0.347-0.068,0.716,0.06,1.051c-0.29,0.418-0.399,0.871-0.331,1.356l0.179-0.175c0.026-0.027,0.045-0.056,0.055-0.09
		c0.011-0.032,0.013-0.069,0.006-0.103l0.086,0.479c0.019,0.108-0.028,0.188-0.144,0.273c-0.289,0.21-0.632,0.552-0.627,0.968
		c-0.16-0.371-0.095-0.68,0.084-0.95c-0.547-0.295-0.964-0.78-1.04-0.869c-0.166-0.192-0.144-0.438,0.007-0.653
		c0.288-0.414,0.357-0.854-0.006-1.156c0.002-0.021,0.004-0.044,0.004-0.067c0-0.273-0.196-0.502-0.454-0.554
		c0.048,0.074,0.076,0.164,0.076,0.259c0,0.11-0.036,0.21-0.098,0.292c0.051,0.067,0.081,0.151,0.081,0.242
		c0,0.123-0.054,0.231-0.142,0.304c0.01-0.041,0.014-0.085,0.014-0.13c0-0.282-0.175-0.519-0.412-0.583
		c-0.038-0.205-0.218-0.36-0.434-0.36c-0.125,0-0.237,0.052-0.319,0.136c0.168,0.013,0.303,0.145,0.321,0.311
		c-0.08,0.06-0.144,0.143-0.186,0.24h0.01c0.29,0,0.525,0.234,0.525,0.523c0,0.032-0.003,0.064-0.01,0.096
		c-0.021-0.118-0.075-0.228-0.161-0.313c-0.163-0.158-0.399-0.192-0.614-0.108c-0.082-0.103-0.207-0.168-0.347-0.168
		c-0.158,0-0.297,0.083-0.375,0.208c0.16,0.008,0.299,0.088,0.388,0.209c-0.227,0.291-0.229,0.693,0.003,0.919
		c0.157,0.154,0.382,0.189,0.592,0.117c0.014-0.004,0.029-0.007,0.045-0.007c0.077,0,0.14,0.063,0.14,0.14
		c0,0.077-0.063,0.139-0.14,0.139c-0.034,0-0.064-0.012-0.089-0.031c-0.053-0.044-0.121-0.071-0.195-0.071
		c-0.168,0-0.306,0.137-0.306,0.306c0,0.014,0,0.026,0.002,0.039C7.832,17.3,7.802,17.305,7.77,17.305
		c-0.082,0-0.157-0.034-0.211-0.088c-0.009,0.034-0.014,0.068-0.014,0.105c0,0.214,0.167,0.392,0.378,0.408
		c0.094,0.235,0.326,0.403,0.596,0.403c0.139,0,0.267-0.044,0.371-0.117c0.046-0.033,0.101-0.052,0.162-0.052
		c0.155,0,0.281,0.127,0.281,0.282c0,0.135-0.095,0.245-0.219,0.276l-0.22,0.047c-0.035,0.008-0.072,0.006-0.104-0.003
		c-0.033-0.009-0.065-0.026-0.091-0.051l0.502,0.477c0.026,0.024,0.058,0.042,0.091,0.05c0.033,0.009,0.068,0.012,0.104,0.003
		l0.411-0.091c0.035-0.008,0.072-0.006,0.104,0.004c0.033,0.008,0.066,0.025,0.092,0.05l0.344,0.327
		c-0.027-0.025-0.059-0.042-0.091-0.052c-0.033-0.008-0.069-0.011-0.104-0.003l-0.41,0.09c-0.035,0.009-0.072,0.007-0.104-0.003
		c-0.033-0.008-0.065-0.025-0.091-0.05l0.459,0.437c0.026,0.024,0.058,0.042,0.091,0.05c0.033,0.01,0.068,0.011,0.104,0.003
		l0.411-0.09c0.035-0.008,0.072-0.007,0.104,0.003c0.033,0.009,0.065,0.026,0.092,0.052l0.344,0.326
		c-0.026-0.024-0.058-0.04-0.091-0.05c-0.033-0.009-0.069-0.01-0.105-0.003l-0.409,0.091c-0.038,0.007-0.072,0.006-0.104-0.003
		c-0.035-0.009-0.065-0.025-0.092-0.051l0.46,0.435c0.027,0.026,0.057,0.042,0.09,0.051c0.034,0.01,0.068,0.012,0.106,0.003
		L11.5,20.46c-0.482,0.272-0.995,0.581-1.539,0.926c-0.322,0.203-0.672,0.241-1.078,0.086c-0.217-0.084-0.452-0.097-0.601-0.071
		c-0.194,0.032-0.356,0.15-0.453,0.313c0.075-0.03,0.157-0.046,0.243-0.046c0.181,0,0.343,0.073,0.462,0.189
		c-0.188-0.078-0.421-0.086-0.648-0.003c-0.406,0.147-0.642,0.531-0.549,0.873c-0.153,0.058-0.259,0.205-0.259,0.376
		c0,0.113,0.047,0.216,0.122,0.289c0.041-0.18,0.197-0.316,0.387-0.322c0.08,0.052,0.172,0.089,0.271,0.109
		c0.03-0.052,0.069-0.098,0.112-0.137c-0.005-0.033-0.007-0.067-0.007-0.099c0-0.371,0.299-0.671,0.67-0.671
		c0.03,0,0.061,0.002,0.09,0.007c-0.294,0.071-0.513,0.334-0.513,0.651c0,0.041,0.004,0.08,0.011,0.117
		c-0.159,0.062-0.271,0.215-0.271,0.394c0,0.103,0.037,0.196,0.098,0.271c0.114-0.222,0.337-0.379,0.596-0.404
		c0.098,0.029,0.202,0.044,0.31,0.044c0.067,0,0.132-0.005,0.196-0.017c-0.057-0.084-0.091-0.186-0.091-0.294
		c0-0.289,0.234-0.522,0.521-0.522c0.025,0,0.049,0.001,0.074,0.007c-0.276,0.115-0.444,0.355-0.385,0.573
		c0.041,0.155,0.186,0.262,0.374,0.296c-0.002,0.116-0.034,0.225-0.088,0.319c0.241-0.017,0.448-0.163,0.551-0.37
		c0.286-0.114,0.461-0.358,0.401-0.581c-0.02-0.079-0.069-0.145-0.136-0.196c0-0.008-0.001-0.016-0.001-0.024
		c0-0.151,0.124-0.276,0.276-0.276c0.153,0,0.277,0.125,0.277,0.276c0,0.073-0.027,0.139-0.073,0.188h0.578
		c0.037,0,0.072-0.008,0.101-0.025c0.032-0.017,0.059-0.04,0.079-0.07l0.372-0.55c0.013-0.021,0.031-0.038,0.053-0.047
		c0.02-0.011,0.044-0.018,0.069-0.018h0.455c-0.025,0-0.048,0.007-0.069,0.018c-0.021,0.01-0.039,0.026-0.053,0.047l-0.373,0.55
		c-0.02,0.03-0.048,0.053-0.078,0.07c-0.029,0.017-0.065,0.025-0.102,0.025h0.692c0.038,0,0.072-0.008,0.101-0.025
		c0.031-0.017,0.059-0.04,0.079-0.07l0.416-0.615c-0.287-0.157-0.405-0.434-0.405-0.812c0-0.236,0.133-0.504,0.153-0.678
		l0.007-0.068c0.005-0.037,0-0.072-0.012-0.103c-0.01-0.026-0.03-0.065-0.051-0.09l0.355,0.365c0.028,0.024,0.048,0.054,0.061,0.086
		c0.012,0.031,0.019,0.067,0.013,0.103l-0.011,0.083c-0.016,0.145-0.198,0.458,0.14,0.743c0.017,0.015,0.059,0.046,0.099,0.07
		l0.241,0.151v-0.887h0.335v0.987c0.001,0.037,0.012,0.071,0.029,0.101c0.017,0.029,0.041,0.058,0.071,0.076l0.329,0.21
		c0.032,0.02,0.065,0.03,0.099,0.033c0.034,0.002,0.071-0.002,0.104-0.017l0.606-0.263c-0.033,0.014-0.07,0.02-0.104,0.017
		c-0.034-0.002-0.069-0.014-0.099-0.033l-0.696-0.444c0.339-0.286,0.155-0.598,0.139-0.743l-0.011-0.083
		c-0.004-0.035,0.001-0.072,0.013-0.103c0.012-0.032,0.032-0.062,0.06-0.086l0.357-0.365c-0.022,0.025-0.042,0.064-0.051,0.09
		c-0.013,0.031-0.018,0.066-0.014,0.103l0.008,0.068c0.028,0.247,0.279,0.695,0.071,0.944l0.636,0.403
		c0.032,0.019,0.064,0.031,0.099,0.034c0.034,0.003,0.07-0.003,0.103-0.018l0.634-0.276c-0.033,0.015-0.069,0.02-0.102,0.017
		c-0.035-0.002-0.069-0.012-0.1-0.032l-0.689-0.438c0.151-0.307,0.024-0.794-0.121-1.078l-0.022-0.042
		c-0.016-0.032-0.023-0.069-0.022-0.103c0-0.033,0.008-0.069,0.027-0.1l0.235-0.427c-0.018,0.032-0.026,0.066-0.026,0.1
		c-0.001,0.035,0.007,0.069,0.022,0.103l0.088,0.169c0.045,0.082,0.071,0.132,0.11,0.231c0.387-0.349,0.474-0.686,0.227-0.972
		l-0.073-0.086c-0.024-0.028-0.041-0.061-0.047-0.093c-0.008-0.034-0.008-0.07,0.002-0.105l0.127-0.471
		c-0.01,0.037-0.01,0.071-0.002,0.104c0.007,0.034,0.022,0.066,0.047,0.093l0.242,0.282c0.47,0.533,0.185,1.218-0.377,1.74
		c0.032,0.102,0.059,0.289,0.036,0.391l0.746,0.473c0.031,0.021,0.066,0.032,0.101,0.034c0.033,0.003,0.068-0.002,0.103-0.018
		l0.54-0.233c-0.031,0.012-0.066,0.019-0.101,0.019c-0.14,0-0.252-0.112-0.252-0.25c0-0.112,0.073-0.208,0.176-0.24
		c2.06-0.626,3.956-2.244,5.2-2.24c0.605,0.002,1.097,0.368,1.097,0.822c0,0.073-0.014,0.144-0.038,0.212
		c-0.265,0.746,0.121,1.458,1.143,1.732c0.161,0.043,0.282,0.193,0.282,0.369c0,0.034-0.005,0.068-0.014,0.099
		c0.023,0.002,0.048,0.002,0.072,0.002c0.28,0,0.529-0.138,0.679-0.353c0.175-0.001,0.367-0.012,0.563-0.032
		c0.023,0.047,0.042,0.103,0.052,0.16c0.042,0.215-0.032,0.409-0.164,0.452c-0.234,0.076-0.521-0.015-0.743-0.013
		c-0.42,0.004-0.758,0.345-0.758,0.765c0,0.033,0.002,0.066,0.006,0.098c-0.132,0.082-0.22,0.228-0.22,0.395
		c0,0.083,0.022,0.161,0.06,0.229c0.129-0.151,0.297-0.268,0.489-0.335c0.017-0.368,0.32-0.661,0.692-0.661
		c0.057,0,0.114,0.006,0.166,0.019c-0.377,0.049-0.668,0.371-0.668,0.761c0,0.027,0.002,0.056,0.004,0.083
		c-0.047,0.057-0.075,0.13-0.075,0.209c0,0.1,0.045,0.191,0.117,0.25c0.071-0.156,0.243-0.302,0.465-0.377
		c0.149-0.05,0.295-0.061,0.418-0.036c-0.019-0.058-0.029-0.121-0.029-0.185c0-0.334,0.27-0.604,0.603-0.604
		c0.03,0,0.061,0.002,0.09,0.006c-0.232,0.033-0.411,0.231-0.411,0.472c0,0.159,0.08,0.301,0.2,0.387
		c0,0.009-0.001,0.017-0.001,0.025c0,0.131,0.06,0.248,0.154,0.325c0.042-0.219,0.234-0.384,0.465-0.384
		c0.197,0,0.361-0.025,0.482-0.065c0.206-0.067,0.356-0.258,0.356-0.485c0-0.159-0.073-0.299-0.185-0.392
		c0.056-0.257,0.046-0.676-0.041-1.026c0.018-0.002,0.035-0.004,0.054-0.004C28.077,21.366,28.204,21.441,28.277,21.553
		 M12.084,19.788l0.087-0.169c0.015-0.034,0.023-0.068,0.022-0.103c0-0.034-0.009-0.068-0.027-0.1l0.237,0.427
		c0.017,0.031,0.026,0.067,0.026,0.1c0.002,0.034-0.006,0.07-0.023,0.103l-0.021,0.042c-0.145,0.283-0.279,0.811-0.129,1.118
		c-0.351-0.131-0.467-0.438-0.429-0.694c-0.66-0.625-0.826-1.26-0.354-1.792l0.242-0.284c0.024-0.027,0.04-0.06,0.046-0.093
		c0.008-0.033,0.008-0.068-0.001-0.104l0.126,0.47c0.009,0.036,0.01,0.071,0.002,0.105c-0.008,0.033-0.023,0.065-0.047,0.092
		l-0.074,0.087c-0.246,0.287-0.18,0.676,0.206,1.025C12.012,19.92,12.039,19.87,12.084,19.788 M12.963,16.389h-0.155
		c-0.169,0-0.318-0.226-0.318-0.428c0.091,0.102,0.19,0.147,0.322,0.147h0.713c0.064,0,0.127,0.048,0.154,0.13
		c0.021,0.061,0.009,0.15-0.002,0.238c-0.034-0.065-0.077-0.088-0.132-0.088h-0.163c0.039,0.047,0.063,0.107,0.063,0.172
		c0,0.151-0.122,0.273-0.271,0.273c-0.151,0-0.271-0.123-0.271-0.273C12.901,16.497,12.923,16.436,12.963,16.389 M13.141,15.102
		l0.297,0.377c0.065,0.079,0.086,0.134,0.165,0.144h-0.249c-0.124,0-0.21-0.05-0.283-0.134l-0.284-0.371
		c-0.047-0.058-0.084-0.1-0.145-0.126h0.28C13.009,14.991,13.083,15.027,13.141,15.102 M13.965,15.01l0.364,0.512
		c0.057,0.083,0.112,0.129,0.189,0.163h-0.333c-0.127,0-0.204-0.06-0.261-0.151l-0.286-0.439c-0.11-0.163-0.152-0.204-0.278-0.249
		h0.309C13.792,14.844,13.906,14.923,13.965,15.01 M15.265,15.623h-0.249c-0.124,0-0.208-0.05-0.281-0.134l-0.284-0.371
		c-0.048-0.058-0.085-0.1-0.145-0.126h0.279c0.085,0,0.16,0.037,0.218,0.111l0.297,0.377C15.166,15.558,15.187,15.613,15.265,15.623
		 M15.359,15.961c0,0.202-0.148,0.428-0.318,0.428h-0.155c0.039,0.047,0.063,0.107,0.063,0.172c0,0.151-0.123,0.273-0.272,0.273
		c-0.15,0-0.272-0.123-0.272-0.273c0-0.065,0.023-0.125,0.063-0.172h-0.162c-0.056,0-0.1,0.023-0.133,0.088
		c-0.012-0.088-0.024-0.177-0.004-0.238c0.029-0.082,0.091-0.13,0.156-0.13h0.713C15.169,16.109,15.267,16.063,15.359,15.961
		 M15.14,17.503c-0.05,0.014-0.077,0.043-0.082,0.094c-0.03,0.277-0.143,0.391-0.322,0.453c-0.003,0.281-0.042,0.494-0.118,0.758
		c0.213,0.447,0.05,0.76-0.125,0.826c-0.165,0.064-0.379-0.022-0.568-0.022c-0.188,0-0.405,0.086-0.572,0.022
		c-0.174-0.066-0.338-0.379-0.124-0.826c-0.075-0.264-0.114-0.477-0.117-0.758c-0.18-0.062-0.294-0.175-0.323-0.453
		c-0.005-0.051-0.033-0.08-0.082-0.094c-0.712-0.195-0.779-1.08-0.418-1.331c-0.033,0.396-0.066,0.956,0.743,1.03
		c-0.014,0.465,0.188,0.589,0.394,0.589c0.169,0,0.267-0.054,0.309-0.076c0.151-0.081,0.047-0.203,0.008-0.239
		c-0.104-0.097-0.156-0.234-0.131-0.371c0.004-0.024,0.014-0.039,0.036-0.039h0.274H14.2c0.022,0,0.032,0.014,0.036,0.039
		c0.024,0.137-0.028,0.273-0.131,0.371c-0.039,0.036-0.143,0.158,0.007,0.239c0.042,0.022,0.14,0.076,0.309,0.076
		c0.207,0,0.407-0.125,0.395-0.589c0.809-0.074,0.774-0.633,0.742-1.03C15.919,16.423,15.852,17.308,15.14,17.503 M14.423,19.208
		c0.021-0.237-0.247-0.321-0.5-0.321c-0.251,0-0.519,0.084-0.498,0.321c0.025,0.289,0.294,0.151,0.498,0.152
		C14.129,19.359,14.398,19.497,14.423,19.208 M14.339,18.646c0.04-0.209,0.057-0.41,0.047-0.606l-0.185,0.219
		c-0.038-0.087-0.062-0.141-0.087-0.183c-0.02-0.036-0.038-0.06-0.062-0.064c-0.014,0.006-0.031,0.016-0.052,0.021
		c-0.023,0.005-0.057,0.003-0.077,0.003c-0.018,0-0.051,0.002-0.076-0.003c-0.021-0.006-0.039-0.015-0.052-0.021
		c-0.024,0.004-0.041,0.028-0.062,0.064c-0.025,0.042-0.049,0.096-0.086,0.183l-0.188-0.219c-0.007,0.196,0.01,0.397,0.048,0.606
		c0.139-0.03,0.28-0.042,0.415-0.042C14.06,18.604,14.202,18.616,14.339,18.646 M22.686,16.622c0.368-0.361,0.793-0.66,1.261-0.887
		c-0.014-0.055-0.021-0.111-0.021-0.167v-0.005c-1.953,0.321-3.708,1.322-5.294,1.314c-0.445-0.002-0.793-0.172-0.85-0.454
		c-0.01-0.055-0.009-0.113,0.003-0.169c0.024-0.11,0.121-0.193,0.238-0.193c0.136,0,0.243,0.108,0.243,0.244
		c0,0.065-0.024,0.123-0.064,0.167c0.046,0.004,0.092,0.006,0.141,0.006c0.126,0,0.245-0.016,0.35-0.043
		c0.171-0.047,0.298-0.203,0.298-0.389c0-0.223-0.181-0.402-0.403-0.402c-0.012,0-0.024,0.001-0.037,0.001
		c0.056-0.023,0.119-0.038,0.183-0.038c0.258,0,0.469,0.21,0.469,0.469c0,0.013-0.001,0.026-0.002,0.04
		c0.698-0.016,1.482-0.65,1.654-0.893c-0.219,0.049-0.455,0.077-0.702,0.077c-0.28,0-0.548-0.034-0.791-0.098
		c-0.343-0.09-0.681-0.141-0.938-0.141c-0.855,0-1.549,0.557-1.549,1.245c0,0.568,0.469,1.066,1.12,1.198
		C19.474,17.805,21.214,16.925,22.686,16.622 M16.372,41.882c0,0.085,0.023,0.162,0.062,0.231c0.153-0.156,0.347-0.271,0.565-0.329
		c0.091-0.324,0.387-0.558,0.738-0.558c0.031,0,0.059,0,0.087,0.005c-0.292,0.084-0.526,0.302-0.637,0.581
		c-0.181,0.063-0.313,0.231-0.313,0.434c0,0.095,0.03,0.182,0.077,0.257c0.159-0.178,0.365-0.311,0.602-0.374
		c0.068-0.337,0.348-0.598,0.698-0.636c-0.305,0.128-0.519,0.43-0.519,0.78c0,0.121,0.026,0.239,0.076,0.347
		c0.054-0.192,0.23-0.335,0.44-0.335c0.053,0,0.104,0.008,0.15,0.026c0.064,0.023,0.135,0.035,0.208,0.035
		c0.338,0,0.612-0.273,0.612-0.611c0-0.069-0.01-0.133-0.031-0.194c0.161,0.048,0.278,0.196,0.278,0.371
		c0,0.08-0.024,0.155-0.066,0.217c0.045,0.008,0.091,0.012,0.139,0.012c0.398,0,0.726-0.299,0.771-0.685
		c0.2-0.107,0.375-0.254,0.526-0.436l0.107,0.519c0.007,0.034,0.005,0.071-0.004,0.103c-0.011,0.034-0.027,0.063-0.053,0.092
		l0.438-0.45c0.026-0.027,0.043-0.059,0.053-0.091c0.01-0.033,0.011-0.069,0.005-0.104l-0.13-0.632
		c-0.007-0.036-0.005-0.073,0.004-0.104c0.01-0.034,0.028-0.063,0.053-0.09l0.345-0.354c-0.025,0.028-0.043,0.06-0.052,0.092
		c-0.009,0.033-0.012,0.068-0.004,0.103l0.129,0.634c0.007,0.037,0.005,0.073-0.004,0.105c-0.01,0.033-0.026,0.063-0.05,0.088
		l0.391-0.405c0.025-0.027,0.042-0.058,0.051-0.091c0.01-0.033,0.013-0.067,0.004-0.105l-0.128-0.63
		c-0.008-0.037-0.005-0.071,0.004-0.104c0.009-0.034,0.027-0.063,0.052-0.091l0.346-0.351c-0.026,0.023-0.043,0.056-0.053,0.091
		c-0.009,0.033-0.01,0.067-0.003,0.103l0.13,0.634c0.008,0.036,0.004,0.069-0.005,0.104c-0.008,0.033-0.025,0.062-0.051,0.089
		l0.391-0.407c0.027-0.024,0.043-0.059,0.053-0.088c0.01-0.033,0.012-0.071,0.004-0.105l-0.063-0.311
		c-0.067-0.349,0.294-0.75,0.58-0.79c0.035-0.065,0.053-0.139,0.053-0.212c0-0.356-0.422-0.642-0.942-0.642
		c-0.254,0-0.486,0.067-0.656,0.181c0.069,0.202,0.084,0.405-0.584,0.499c-0.529,0.077-0.994,0.18-1.349,0.479
		c-0.546,0.465-0.502,1.083-0.813,1.316c0.138,0.033,0.314,0.033,0.501-0.006c0.119-0.027,0.229-0.065,0.326-0.115
		c-0.059,0.113-0.191,0.218-0.365,0.293c-0.059,0.218-0.253,0.426-0.515,0.522c-0.165,0.063-0.33,0.069-0.466,0.03l-0.639-0.187
		c-0.079-0.02-0.16-0.031-0.246-0.031c-0.47,0-0.859,0.36-0.916,0.828C16.542,41.46,16.372,41.651,16.372,41.882"/>
	<path d="M45.037,30.559c-0.167,0.164-0.397,0.247-0.693,0.247c-0.329,0-0.595-0.093-0.797-0.278
		c-0.204-0.186-0.305-0.471-0.305-0.857h-0.757l-0.007,0.022c-0.014,0.543,0.167,0.963,0.545,1.262
		c0.376,0.299,0.817,0.449,1.321,0.449c0.518,0,0.935-0.136,1.254-0.407c0.318-0.273,0.478-0.64,0.478-1.104
		c0-0.438-0.135-0.799-0.405-1.076c-0.268-0.277-0.66-0.496-1.176-0.656c-0.393-0.136-0.675-0.285-0.846-0.449
		c-0.171-0.165-0.255-0.368-0.255-0.608c0-0.267,0.079-0.485,0.237-0.658c0.16-0.172,0.385-0.257,0.678-0.257
		c0.309,0,0.547,0.102,0.716,0.31c0.168,0.206,0.254,0.474,0.254,0.803h0.757l0.008-0.023c0.011-0.466-0.144-0.864-0.464-1.194
		c-0.32-0.33-0.741-0.495-1.263-0.495c-0.502,0-0.913,0.143-1.233,0.429c-0.319,0.285-0.479,0.649-0.479,1.095
		c0,0.43,0.144,0.777,0.43,1.04c0.288,0.262,0.701,0.475,1.24,0.638c0.374,0.13,0.637,0.278,0.787,0.45
		c0.15,0.171,0.225,0.39,0.225,0.655C45.287,30.176,45.204,30.396,45.037,30.559 M50.243,28.59c0-0.55-0.154-0.998-0.465-1.339
		c-0.31-0.342-0.713-0.513-1.207-0.513c-0.498,0-0.899,0.171-1.208,0.513C47.056,27.592,46.9,28.04,46.9,28.59v0.943
		c0,0.556,0.156,1.005,0.465,1.344c0.309,0.341,0.713,0.511,1.213,0.511c0.493,0,0.896-0.17,1.203-0.511
		c0.308-0.339,0.461-0.788,0.461-1.344V28.59z M49.459,29.528c0,0.395-0.079,0.704-0.235,0.928
		c-0.156,0.221-0.372,0.334-0.646,0.334c-0.282,0-0.502-0.113-0.658-0.334c-0.156-0.224-0.235-0.533-0.235-0.928v-0.945
		c0-0.387,0.077-0.692,0.233-0.914c0.155-0.222,0.373-0.333,0.652-0.333c0.277,0,0.494,0.11,0.652,0.333
		c0.157,0.222,0.236,0.527,0.236,0.914V29.528z M53.942,26.801h-3.097v0.598h1.145v3.924h0.784v-3.924h1.169V26.801z M56.523,30.608
		c-0.132,0.12-0.328,0.182-0.586,0.182c-0.24,0-0.438-0.063-0.592-0.188c-0.153-0.127-0.231-0.332-0.231-0.618h-0.752l-0.012,0.024
		c-0.012,0.463,0.128,0.809,0.423,1.036c0.295,0.23,0.683,0.343,1.164,0.343c0.479,0,0.86-0.11,1.143-0.337
		c0.284-0.224,0.425-0.527,0.425-0.917c0-0.381-0.112-0.669-0.337-0.869c-0.226-0.2-0.575-0.369-1.048-0.508
		c-0.352-0.107-0.584-0.215-0.698-0.323c-0.111-0.11-0.168-0.259-0.168-0.453c0-0.186,0.058-0.34,0.172-0.462
		c0.115-0.123,0.292-0.182,0.53-0.182c0.235,0,0.413,0.073,0.533,0.218c0.121,0.146,0.18,0.339,0.18,0.577h0.753l0.008-0.022
		c0.011-0.431-0.115-0.766-0.378-1.008c-0.262-0.243-0.627-0.364-1.096-0.364c-0.456,0-0.816,0.116-1.085,0.346
		c-0.267,0.23-0.402,0.532-0.402,0.907c0,0.385,0.112,0.675,0.335,0.868c0.224,0.196,0.582,0.359,1.073,0.497
		c0.321,0.105,0.541,0.216,0.662,0.33c0.12,0.115,0.181,0.267,0.181,0.451C56.721,30.331,56.655,30.488,56.523,30.608
		 M59.267,26.801h-0.784v4.521h0.784V26.801z M63.069,31.322h0.824l-1.506-4.521h-0.812l-1.514,4.521h0.827l0.323-1.019h1.532
		L63.069,31.322z M61.963,27.903h0.023l0.571,1.8h-1.161L61.963,27.903z M67.303,31.322h0.823l-1.506-4.521H65.81l-1.513,4.521
		h0.827l0.322-1.019h1.533L67.303,31.322z M66.198,27.903h0.023l0.57,1.8h-1.161L66.198,27.903z M69.532,26.801h-0.785v4.521h2.454
		v-0.598h-1.669V26.801z M74.13,31.322h1.006l-1.462-2.406l1.372-2.115h-0.978l-1.048,1.942h-0.3v-1.942h-0.784v4.521h0.784V29.39
		h0.343L74.13,31.322z M76.695,26.801h-0.784v4.521h0.784V26.801z M81.198,26.801H80.41v3.12l-0.025,0.009l-1.733-3.129h-0.783
		v4.521h0.783v-3.125l0.023-0.007l1.735,3.132h0.788V26.801z M83.829,31.322c0.476,0,0.873-0.172,1.191-0.519
		c0.318-0.344,0.476-0.789,0.476-1.333v-0.814c0-0.542-0.157-0.989-0.476-1.335c-0.318-0.347-0.716-0.52-1.191-0.52h-1.436v4.521
		H83.829z M83.829,27.398c0.254,0,0.464,0.119,0.632,0.359c0.167,0.239,0.252,0.536,0.252,0.892v0.818
		c0,0.363-0.085,0.662-0.252,0.902c-0.168,0.237-0.378,0.355-0.632,0.355h-0.652v-3.326H83.829z M87.326,26.801h-0.785v4.521h2.454
		v-0.598h-1.669V26.801z M92.133,26.801v2.96c0,0.325-0.078,0.576-0.238,0.759c-0.159,0.18-0.374,0.271-0.649,0.271
		c-0.272,0-0.488-0.091-0.648-0.271c-0.161-0.183-0.24-0.434-0.24-0.759v-2.96h-0.784v2.966c0,0.509,0.153,0.906,0.462,1.191
		c0.309,0.287,0.712,0.43,1.211,0.43c0.498,0,0.903-0.143,1.211-0.43c0.307-0.285,0.461-0.683,0.461-1.191v-2.966H92.133z
		 M96.029,30.608c-0.131,0.12-0.326,0.182-0.586,0.182c-0.24,0-0.438-0.063-0.591-0.188c-0.153-0.127-0.231-0.332-0.231-0.618
		h-0.752l-0.013,0.024c-0.014,0.463,0.128,0.809,0.423,1.036c0.295,0.23,0.684,0.343,1.164,0.343c0.479,0,0.86-0.11,1.143-0.337
		c0.284-0.224,0.426-0.527,0.426-0.917c0-0.381-0.111-0.669-0.339-0.869c-0.225-0.2-0.574-0.369-1.045-0.508
		c-0.354-0.107-0.586-0.215-0.699-0.323c-0.11-0.11-0.168-0.259-0.168-0.453c0-0.186,0.058-0.34,0.173-0.462
		c0.116-0.123,0.291-0.182,0.529-0.182c0.236,0,0.414,0.073,0.534,0.218c0.121,0.146,0.181,0.339,0.181,0.577h0.753l0.007-0.022
		c0.011-0.431-0.115-0.766-0.377-1.008c-0.264-0.243-0.63-0.364-1.098-0.364c-0.455,0-0.816,0.116-1.085,0.346
		c-0.267,0.23-0.401,0.532-0.401,0.907c0,0.385,0.11,0.675,0.337,0.868c0.223,0.196,0.581,0.359,1.072,0.497
		c0.321,0.105,0.541,0.216,0.661,0.33c0.121,0.115,0.181,0.267,0.181,0.451C96.228,30.331,96.163,30.488,96.029,30.608
		 M100.657,26.801h-3.099v0.598h1.146v3.924h0.784v-3.924h1.169V26.801z M103.976,26.801v2.96c0,0.325-0.082,0.576-0.239,0.759
		c-0.16,0.18-0.377,0.271-0.651,0.271c-0.271,0-0.487-0.091-0.648-0.271c-0.16-0.183-0.24-0.434-0.24-0.759v-2.96h-0.783v2.966
		c0,0.509,0.152,0.906,0.46,1.191c0.311,0.287,0.713,0.43,1.212,0.43c0.5,0,0.904-0.143,1.211-0.43
		c0.308-0.285,0.463-0.683,0.463-1.191v-2.966H103.976z M107.711,30.608c-0.132,0.12-0.325,0.182-0.586,0.182
		c-0.241,0-0.438-0.063-0.592-0.188c-0.152-0.127-0.23-0.332-0.23-0.618h-0.753l-0.011,0.024c-0.015,0.463,0.127,0.809,0.422,1.036
		c0.294,0.23,0.684,0.343,1.164,0.343c0.479,0,0.861-0.11,1.144-0.337c0.283-0.224,0.425-0.527,0.425-0.917
		c0-0.381-0.112-0.669-0.337-0.869c-0.226-0.2-0.574-0.369-1.048-0.508c-0.352-0.107-0.584-0.215-0.696-0.323
		c-0.111-0.11-0.17-0.259-0.17-0.453c0-0.186,0.059-0.34,0.174-0.462c0.114-0.123,0.291-0.182,0.527-0.182s0.413,0.073,0.535,0.218
		c0.121,0.146,0.181,0.339,0.181,0.577h0.753l0.008-0.022c0.01-0.431-0.116-0.766-0.379-1.008c-0.261-0.243-0.629-0.364-1.098-0.364
		c-0.454,0-0.815,0.116-1.084,0.346c-0.267,0.23-0.401,0.532-0.401,0.907c0,0.385,0.112,0.675,0.336,0.868
		c0.227,0.196,0.583,0.359,1.073,0.497c0.321,0.105,0.541,0.216,0.663,0.33c0.119,0.115,0.179,0.267,0.179,0.451
		C107.909,30.331,107.844,30.488,107.711,30.608 M112.303,31.322h0.822l-1.505-4.521h-0.811l-1.514,4.521h0.826l0.321-1.019h1.533
		L112.303,31.322z M111.197,27.903h0.023l0.571,1.8h-1.162L111.197,27.903z M114.895,26.801h-0.989v4.521h0.783v-2.985l0.023-0.003
		l0.976,2.988h0.532l0.968-2.969l0.025,0.004v2.965h0.788v-4.521h-0.986l-1.053,3.556h-0.022L114.895,26.801z M121.637,28.673
		h-1.666v-1.274h1.948v-0.598h-2.732v4.521h2.732v-0.598h-1.948v-1.456h1.666V28.673z M125.815,26.801h-3.098v0.598h1.146v3.924
		h0.784v-3.924h1.168V26.801z"/>
</g>
</svg>
